<svg xmlns="http://www.w3.org/2000/svg" width="1900" height="1620" viewBox="0 0 1900 1620">
  <defs>
    <marker id="arrow" viewBox="0 0 10 10" refX="9" refY="5" markerWidth="8" markerHeight="8" orient="auto-start-reverse">
      <path d="M 0 0 L 10 5 L 0 10 z" fill="#334155" />
    </marker>
    <style>
      .title { font: 700 30px Arial, sans-serif; fill: #0f172a; }
      .box { fill: #f8fafc; stroke: #334155; stroke-width: 2; }
      .accent { fill: #eff6ff; stroke: #2563eb; }
      .decision { fill: #fff7ed; stroke: #ea580c; }
      .support { fill: #f8fafc; stroke: #64748b; stroke-width: 2; stroke-dasharray: 8 6; }
      .text { font: 600 18px Arial, sans-serif; fill: #0f172a; }
      .small { font: 400 15px Arial, sans-serif; fill: #334155; }
      .tiny { font: 400 14px Arial, sans-serif; fill: #475569; }
      .line { stroke: #334155; stroke-width: 3; fill: none; marker-end: url(#arrow); }
      .dashed { stroke: #64748b; stroke-width: 2.5; stroke-dasharray: 8 6; fill: none; marker-end: url(#arrow); }
      .label { font: 600 14px Arial, sans-serif; fill: #334155; }
    </style>
  </defs>

  <rect width="1900" height="1620" fill="#ffffff" />
  <text x="70" y="60" class="title">HRPO v4 Architecture Graph</text>

  <rect x="80" y="130" width="260" height="100" rx="16" ry="16" class="box accent" />
  <text x="210" y="166" text-anchor="middle" class="text">Phase 1</text>
  <text x="210" y="194" text-anchor="middle" class="small">Start optimization job</text>
  <text x="210" y="216" text-anchor="middle" class="small">generate one trajectory set</text>

  <rect x="80" y="270" width="320" height="150" rx="16" ry="16" class="support" />
  <text x="240" y="306" text-anchor="middle" class="text">Optimization Job Metadata</text>
  <text x="240" y="334" text-anchor="middle" class="small">optimization job id</text>
  <text x="240" y="356" text-anchor="middle" class="small">trajectory location</text>
  <text x="240" y="389" text-anchor="middle" class="small">config used for the optimization job</text>

  <rect x="80" y="440" width="320" height="140" rx="16" ry="16" class="support" />
  <text x="240" y="474" text-anchor="middle" class="text">Hyper parameters</text>
  <text x="240" y="524" text-anchor="middle" class="small">seed prompt</text>
  <text x="240" y="546" text-anchor="middle" class="small">temperature</text>

  <rect x="800" y="130" width="360" height="118" rx="16" ry="16" class="box accent" />
  <text x="980" y="166" text-anchor="middle" class="text">Phase 2</text>
  <text x="980" y="194" text-anchor="middle" class="small">Generate candidate runs on the</text>
  <text x="980" y="216" text-anchor="middle" class="small">same fixed trajectory set for</text>
  <text x="980" y="238" text-anchor="middle" class="small">the current candidate</text>

  <rect x="1210" y="130" width="300" height="100" rx="16" ry="16" class="box" />
  <text x="1360" y="166" text-anchor="middle" class="text">Tally Evaluation</text>
  <text x="1360" y="194" text-anchor="middle" class="small">one TallyRunArtifact</text>
  <text x="1360" y="216" text-anchor="middle" class="small">per conversation</text>

  <rect x="1560" y="60" width="280" height="88" rx="16" ry="16" class="box" />
  <text x="1700" y="96" text-anchor="middle" class="text">Single-turn evals</text>
  <text x="1700" y="124" text-anchor="middle" class="small">step-level pass or fail</text>

  <rect x="1560" y="166" width="280" height="88" rx="16" ry="16" class="box" />
  <text x="1700" y="202" text-anchor="middle" class="text">Multi-turn evals</text>
  <text x="1700" y="230" text-anchor="middle" class="small">conversation-level pass or fail</text>

  <rect x="1560" y="272" width="280" height="88" rx="16" ry="16" class="box accent" />
  <text x="1700" y="308" text-anchor="middle" class="text">OverallQuality</text>
  <text x="1700" y="336" text-anchor="middle" class="small">one scalar per conversation</text>

  <rect x="1420" y="640" width="300" height="100" rx="16" ry="16" class="box accent" />
  <text x="1570" y="676" text-anchor="middle" class="text">Phase 3</text>
  <text x="1570" y="704" text-anchor="middle" class="small">Analyze failures</text>
  <text x="1570" y="726" text-anchor="middle" class="small">from single-turn, multi-turn, OverallQuality</text>

  <rect x="1020" y="670" width="300" height="90" rx="16" ry="16" class="box" />
  <text x="1170" y="706" text-anchor="middle" class="text">Failed step-level evals</text>
  <text x="1170" y="734" text-anchor="middle" class="small">single-turn failures</text>

  <rect x="1020" y="795" width="300" height="90" rx="16" ry="16" class="box" />
  <text x="1170" y="831" text-anchor="middle" class="text">Failed conversation evals</text>
  <text x="1170" y="859" text-anchor="middle" class="small">multi-turn failures</text>

  <rect x="660" y="670" width="300" height="90" rx="16" ry="16" class="box accent" />
  <text x="810" y="706" text-anchor="middle" class="text">Conversation-level summary</text>
  <text x="810" y="734" text-anchor="middle" class="small">aggregate failed steps</text>

  <rect x="660" y="795" width="300" height="90" rx="16" ry="16" class="box accent" />
  <text x="810" y="831" text-anchor="middle" class="text">Across all conversations summary</text>
  <text x="810" y="859" text-anchor="middle" class="small">aggregate failed runs</text>

  <rect x="80" y="705" width="540" height="100" rx="16" ry="16" class="support" />
  <text x="350" y="741" text-anchor="middle" class="text">Failure analysis summary</text>
  <text x="350" y="778" text-anchor="middle" class="small">conversation &amp; cross-run summaries</text>

  <rect x="80" y="990" width="360" height="150" rx="16" ry="16" class="box decision" />
  <text x="260" y="1020" text-anchor="middle" class="text">Phase 6: Stop condition?</text>
  <text x="260" y="1046" text-anchor="middle" class="small">stop if allEvalsPassing</text>
  <text x="260" y="1068" text-anchor="middle" class="small">or if threshold score achieved</text>
  <text x="260" y="1090" text-anchor="middle" class="small">or if max cycles reached</text>
  <text x="260" y="1112" text-anchor="middle" class="small">or if no useful mutations remain</text>

  <rect x="500" y="1000" width="340" height="132" rx="16" ry="16" class="box accent" />
  <text x="670" y="1024" text-anchor="middle" class="text">Phase 4</text>
  <text x="670" y="1048" text-anchor="middle" class="small">Generate next candidate prompt:</text>
  <text x="670" y="1072" text-anchor="middle" class="small">based on failure analysis summary</text>
  <text x="670" y="1096" text-anchor="middle" class="small">+ previous cycleOutput (previous candidate)</text>

  <rect x="900" y="1022" width="330" height="88" rx="16" ry="16" class="box accent" />
  <text x="1065" y="1066" text-anchor="middle" class="text">cycleOutput</text>

  <rect x="1310" y="970" width="240" height="100" rx="16" ry="16" class="box accent" />
  <text x="1430" y="1006" text-anchor="middle" class="text">Continue loop</text>
  <text x="1430" y="1034" text-anchor="middle" class="small">go back to candidate runs</text>

  <rect x="1310" y="1104" width="240" height="100" rx="16" ry="16" class="box accent" />
  <text x="1430" y="1140" text-anchor="middle" class="text">Stop optimization job</text>
  <text x="1430" y="1168" text-anchor="middle" class="small">freeze candidate generation</text>

  <rect x="1060" y="1380" width="360" height="100" rx="16" ry="16" class="box accent" />
  <text x="1240" y="1416" text-anchor="middle" class="text">Phase 7</text>
  <text x="1240" y="1444" text-anchor="middle" class="small">Review all stored cycle outputs</text>

  <rect x="700" y="1380" width="300" height="100" rx="16" ry="16" class="box accent" />
  <text x="850" y="1416" text-anchor="middle" class="text">Compare all candidates</text>
  <text x="850" y="1444" text-anchor="middle" class="small">OverallQuality plus weighted guardrails</text>

  <rect x="380" y="1380" width="260" height="100" rx="16" ry="16" class="box accent" />
  <text x="510" y="1416" text-anchor="middle" class="text">Final accepted candidate</text>
  <text x="510" y="1444" text-anchor="middle" class="small">choose best-performing candidate</text>

  <rect x="80" y="1380" width="250" height="100" rx="16" ry="16" class="support" />
  <text x="205" y="1416" text-anchor="middle" class="text">Final selection record</text>
  <text x="205" y="1444" text-anchor="middle" class="small">candidate id, cycle output id, rationale</text>

  <path d="M340 180 L800 180" class="line" />
  <path d="M240 230 L240 270" class="dashed" />
  <path d="M240 420 L240 440" class="dashed" />
  <path d="M1160 180 L1210 180" class="line" />
  <path d="M1510 180 L1560 104" class="line" />
  <path d="M1510 180 L1560 210" class="line" />
  <path d="M1510 180 L1560 316" class="line" />
  <path d="M1700 148 L1700 480 M1700 254 L1700 480 M1700 360 L1700 480 M1700 480 L1570 480 L1570 640" class="line" />
  <path d="M1420 690 L1320 715" class="line" />
  <path d="M1420 715 L1320 840" class="line" />
  <path d="M1020 715 L960 715" class="line" />
  <path d="M1020 840 L960 840" class="line" />
  <path d="M660 715 L620 750" class="line" />
  <path d="M660 840 L620 805" class="line" />
  <path d="M350 805 L260 995" class="line" />
  <path d="M440 1066 L500 1066" class="line" />
  <path d="M840 1066 L900 1066" class="line" />
  <path d="M1230 1066 L1310 1020" class="line" />
  <path d="M260 1140 L260 1175 L1310 1175 L1310 1154" class="line" />
  <path d="M1430 970 L1430 620 L980 620 L980 248" class="line" />
  <path d="M1430 1204 L1430 1380" class="line" />
  <path d="M1060 1430 L1000 1430" class="line" />
  <path d="M700 1430 L640 1430" class="line" />
  <path d="M380 1430 L330 1430" class="dashed" />

  <text x="1600" y="135" class="label">3 outputs</text>
  <text x="1510" y="622" class="label">phase 3</text>
  <text x="455" y="1048" class="label">continue</text>
  <text x="300" y="1165" class="label">stop</text>
  <text x="1220" y="612" class="label">continue loop</text>
</svg>
